# xmcd CD database file
#
# Track frame offsets:
#	150
#	11615
#	31855
#	65225
#	84137
#	101117
#	112700
#	127885
#	147110
#	167660
#	182247
#
# Disc length: 2874 seconds
#
# Revision: 0
# Processed by: cddbd v1.5.2PL0 Copyright (c) Steve Scherf et al.
# Submitted via: CDex 1.51
#
DISCID=850b380b
DTITLE=Skeeter Brandon and HWY 61 - Rockin' with the blues
DYEAR=1991
DGENRE=Blues
TTITLE0=Aw shucks baby
TTITLE1=Sparks
TTITLE2=Soap opera blues
TTITLE3=Bad thing
TTITLE4=The last goodbye
TTITLE5=Strollie bun
TTITLE6=You're jinglin', baby
TTITLE7=Please please
TTITLE8=Just another day
TTITLE9=That's what lovin' you has done to me
TTITLE10=Rockin' with the blues - Bug out
EXTD=YEAR: 1991
EXTT0=
EXTT1=
EXTT2=
EXTT3=
EXTT4=
EXTT5=
EXTT6=
EXTT7=
EXTT8=
EXTT9=
EXTT10=
PLAYORDER=
